<svg id="Layer_1" data-name="Layer 1" xmlns="http://www.w3.org/2000/svg" width="257" height="59.9" viewBox="0 0 257 59.9"><defs><style>.cls-1{fill:#fff;}</style></defs><title>logo-Trade-Invertido</title><path class="cls-1" d="M106.59,33.21H98q-2-7.3-3.44-14.48c-1-4.78-1.83-9.79-2.55-15h7.39a198.72,198.72,0,0,0,3.28,22.07c.55-2.82,1.07-5.52,1.57-8.08s.87-5,1.14-7.15a58.27,58.27,0,0,0,.39-6.84h6.73q-1.14,8.48-2.49,15.45t-3.41,14.06m17.93,0-.35-2a8.35,8.35,0,0,1-2.39,1.81,6,6,0,0,1-2.82.68A5.88,5.88,0,0,1,114.5,32a7,7,0,0,1-1.66-5,6.83,6.83,0,0,1,2.41-5.47q2.4-2.05,7.12-2.05h.79V18.25a2.33,2.33,0,0,0-.68-1.85,2.9,2.9,0,0,0-2-.59,19.67,19.67,0,0,0-5.86,1.26l-.78-4.37A23.22,23.22,0,0,1,118,11.11a15.3,15.3,0,0,1,4.13-.55,7.9,7.9,0,0,1,5.66,1.84,6.78,6.78,0,0,1,2,5.2V33.21Zm-1.36-9.67h-1a2.93,2.93,0,0,0-2.19.7,3,3,0,0,0-.65,2.06c0,1.37.54,2.05,1.61,2.05a2.83,2.83,0,0,0,1.14-.26,4.39,4.39,0,0,0,1-.61Zm14,10.1a4.41,4.41,0,0,1-3.17-1c-.69-.66-1-1.86-1-3.61V2.21h6.65V26.26a4.64,4.64,0,0,0,.26,2,1,1,0,0,0,1,.46l.7-.08.31,4.32a13.91,13.91,0,0,1-2.21.55,16.89,16.89,0,0,1-2.47.15m14,.09a8.08,8.08,0,0,1-6.43-2.62c-1.52-1.75-2.29-4.56-2.29-8.44s.84-6.86,2.52-9a8.17,8.17,0,0,1,6.75-3.15A7.25,7.25,0,0,1,158,13.47q2.13,2.91,2.13,10.07H149.26V24a4.73,4.73,0,0,0,.86,3.08,2.86,2.86,0,0,0,2.33,1,18.54,18.54,0,0,0,3.17-.33,34.72,34.72,0,0,0,3.7-.86l.79,4.12A23.45,23.45,0,0,1,155.59,33a15.35,15.35,0,0,1-4.43.74m2.47-14.56a6.27,6.27,0,0,0-.55-3,1.73,1.73,0,0,0-1.57-.94,1.92,1.92,0,0,0-1.56,1,6,6,0,0,0-.69,3.26h4.37Z"/><path class="cls-1" d="M11,9.64V33.21H4.11V9.64H0V3.7H15.08V9.64Zm17.36,7.92c-.26-.09-.6-.2-1-.31a4.21,4.21,0,0,0-1.16-.18,1.54,1.54,0,0,0-1.18.64,10.34,10.34,0,0,0-1.22,2.21V33.21H17.09V11.08h5.47l.48,3.2a13.11,13.11,0,0,1,2-2.85,2.92,2.92,0,0,1,2.14-.87,8,8,0,0,1,2,.31ZM41.1,33.21l-.35-2a8.31,8.31,0,0,1-2.38,1.81,6,6,0,0,1-2.82.68A5.85,5.85,0,0,1,31.09,32a6.93,6.93,0,0,1-1.67-5,6.83,6.83,0,0,1,2.41-5.47c1.6-1.37,4-2.05,7.12-2.05h.79V18.25a2.3,2.3,0,0,0-.68-1.85,2.89,2.89,0,0,0-2-.59,19.55,19.55,0,0,0-5.86,1.26l-.79-4.37a23.22,23.22,0,0,1,4.13-1.59,15.35,15.35,0,0,1,4.13-.55,7.9,7.9,0,0,1,5.66,1.84,6.78,6.78,0,0,1,1.95,5.2V33.21Zm-1.36-9.67h-1a2.93,2.93,0,0,0-2.19.7,3,3,0,0,0-.65,2.06c0,1.37.54,2.05,1.62,2.05a2.75,2.75,0,0,0,1.13-.26,4.39,4.39,0,0,0,1.05-.61Zm21.08,9.67-.35-2a9.05,9.05,0,0,1-2.58,1.81,6.3,6.3,0,0,1-2.71.68,5.28,5.28,0,0,1-4.86-3,15.15,15.15,0,0,1-1.66-7.43q0-5.82,2.52-9.25t7.49-3.43l1,.13V2.21h6.65v31Zm-1.1-17.45a2.34,2.34,0,0,0-.91-.17,2.43,2.43,0,0,0-2.34,1.68,12.65,12.65,0,0,0-.73,4.87,15.16,15.16,0,0,0,.48,4.68c.33.85.81,1.27,1.45,1.27a2.09,2.09,0,0,0,.83-.15c.23-.1.64-.31,1.22-.63Zm17.73,18A8.08,8.08,0,0,1,71,31.11q-2.3-2.62-2.29-8.44c0-3.88.84-6.86,2.51-9A8.21,8.21,0,0,1,78,10.56a7.25,7.25,0,0,1,6.27,2.91q2.13,2.91,2.12,10.07H75.55V24a4.73,4.73,0,0,0,.85,3.08,2.9,2.9,0,0,0,2.34,1,18.54,18.54,0,0,0,3.17-.33,34.72,34.72,0,0,0,3.7-.86l.78,4.12A23.62,23.62,0,0,1,81.88,33a15.41,15.41,0,0,1-4.43.74m2.47-14.56a6.27,6.27,0,0,0-.55-3,1.74,1.74,0,0,0-1.57-.94,1.94,1.94,0,0,0-1.57,1,6.09,6.09,0,0,0-.68,3.26h4.37Z"/><rect class="cls-1" x="176.67" y="15.36" width="9.69" height="28.94"/><polygon points="222.85 15.36 248.08 15.36 248.08 0 186.36 0 186.36 15.36 186.36 44.3 186.36 59.9 248.08 59.9 248.08 44.3 222.85 44.3 222.85 15.36"/><polygon class="cls-1" points="257 15.36 248.08 15.36 222.85 15.36 222.85 44.3 248.08 44.3 257 44.3 257 15.36"/><path class="cls-1" d="M51.36,50a5.69,5.69,0,0,1-2.35.42A4.14,4.14,0,0,1,44.63,46a4.42,4.42,0,0,1,4.63-4.67,4.7,4.7,0,0,1,2.11.4l-.27.93a4.25,4.25,0,0,0-1.8-.36c-2.08,0-3.46,1.33-3.46,3.66a3.23,3.23,0,0,0,3.41,3.57,4.48,4.48,0,0,0,1.87-.37Z"/><path class="cls-1" d="M58.38,47.09a3.12,3.12,0,0,1-3.17,3.39,3,3,0,0,1-3.06-3.29,3.11,3.11,0,0,1,3.16-3.38,3,3,0,0,1,3.07,3.28m-5.06.07c0,1.39.81,2.45,1.94,2.45s1.94-1,1.94-2.48c0-1.08-.54-2.45-1.91-2.45s-2,1.26-2,2.48"/><path class="cls-1" d="M59.85,45.94c0-.75,0-1.39-.06-2h1l0,1.25h0a1.92,1.92,0,0,1,1.77-1.39,1.15,1.15,0,0,1,.33,0v1.09a1.59,1.59,0,0,0-.4,0A1.63,1.63,0,0,0,61,46.39a4.15,4.15,0,0,0,0,.54v3.4H59.85Z"/><path class="cls-1" d="M64.21,45.94c0-.75,0-1.39-.06-2h1l0,1.25h.05A1.92,1.92,0,0,1,67,43.81a1.15,1.15,0,0,1,.33,0v1.09a1.59,1.59,0,0,0-.4,0,1.61,1.61,0,0,0-1.55,1.49,2.87,2.87,0,0,0-.06.54v3.4H64.21Z"/><path class="cls-1" d="M69,47.35a2.05,2.05,0,0,0,2.19,2.22A4.22,4.22,0,0,0,73,49.24l.2.83a5.28,5.28,0,0,1-2.12.39,3,3,0,0,1-3.14-3.21c0-1.93,1.14-3.44,3-3.44,2.09,0,2.64,1.83,2.64,3a5.05,5.05,0,0,1,0,.54Zm3.4-.83a1.65,1.65,0,0,0-1.61-1.88A1.93,1.93,0,0,0,69,46.52Z"/><path class="cls-1" d="M76.38,42.12V44H78v.89H76.38v3.44c0,.79.23,1.23.87,1.23a2.61,2.61,0,0,0,.68-.08l0,.87a2.7,2.7,0,0,1-1,.16A1.61,1.61,0,0,1,75.7,50a2.37,2.37,0,0,1-.45-1.66V44.84h-1V44h1V42.42Z"/><path class="cls-1" d="M85,47.09a3.12,3.12,0,0,1-3.17,3.39,3,3,0,0,1-3.06-3.29A3.11,3.11,0,0,1,82,43.81,3,3,0,0,1,85,47.09M80,47.16c0,1.39.8,2.45,1.94,2.45s1.94-1,1.94-2.48c0-1.08-.55-2.45-1.92-2.45s-2,1.26-2,2.48"/><path class="cls-1" d="M86.5,45.94c0-.75,0-1.39,0-2h1l0,1.25h.06a1.92,1.92,0,0,1,1.76-1.39,1.06,1.06,0,0,1,.33,0v1.09a1.51,1.51,0,0,0-.39,0,1.63,1.63,0,0,0-1.56,1.49,4.15,4.15,0,0,0,0,.54v3.4H86.5Z"/><path class="cls-1" d="M94.28,50.33l-.09-.8h0a2.38,2.38,0,0,1-2,.95,1.81,1.81,0,0,1-2-1.84c0-1.54,1.37-2.38,3.83-2.37v-.13a1.31,1.31,0,0,0-1.45-1.48,3.19,3.19,0,0,0-1.66.48l-.26-.77a4,4,0,0,1,2.09-.56c2,0,2.43,1.33,2.43,2.61V48.8a8.86,8.86,0,0,0,.1,1.53Zm-.17-3.25c-1.27,0-2.71.19-2.71,1.43a1,1,0,0,0,1.1,1.11A1.58,1.58,0,0,0,94,48.55a1.21,1.21,0,0,0,.07-.37Z"/><path class="cls-1" d="M105.4,41v7.71c0,.57,0,1.22,0,1.65h-1l0-1.11h0a2.34,2.34,0,0,1-2.17,1.26c-1.54,0-2.73-1.31-2.73-3.25,0-2.12,1.3-3.42,2.86-3.42a2.12,2.12,0,0,1,1.92,1h0V41Zm-1.16,5.58a2,2,0,0,0,0-.49,1.71,1.71,0,0,0-1.68-1.34c-1.2,0-1.91,1.05-1.91,2.46s.64,2.36,1.89,2.36a1.74,1.74,0,0,0,1.7-1.38,2,2,0,0,0,0-.5Z"/><path class="cls-1" d="M108,47.35a2.05,2.05,0,0,0,2.19,2.22,4.22,4.22,0,0,0,1.76-.33l.2.83a5.28,5.28,0,0,1-2.12.39,3,3,0,0,1-3.14-3.21c0-1.93,1.14-3.44,3-3.44,2.09,0,2.64,1.83,2.64,3a5.05,5.05,0,0,1,0,.54Zm3.4-.83a1.65,1.65,0,0,0-1.61-1.88A1.92,1.92,0,0,0,108,46.52Z"/><path class="cls-1" d="M116.6,48.93a4,4,0,0,0,2.06.58c1.17,0,1.85-.62,1.85-1.51s-.47-1.31-1.67-1.77c-1.45-.51-2.35-1.26-2.35-2.51s1.15-2.42,2.88-2.42a3.93,3.93,0,0,1,2,.44l-.31.93a3.67,3.67,0,0,0-1.69-.42c-1.21,0-1.68.73-1.68,1.33,0,.83.54,1.24,1.77,1.72,1.5.58,2.27,1.3,2.27,2.61s-1,2.55-3.11,2.55a4.65,4.65,0,0,1-2.27-.56Z"/><path class="cls-1" d="M123.94,47.35a2.05,2.05,0,0,0,2.19,2.22,4.22,4.22,0,0,0,1.76-.33l.2.83a5.28,5.28,0,0,1-2.12.39,3,3,0,0,1-3.14-3.21c0-1.93,1.14-3.44,3-3.44,2.09,0,2.64,1.83,2.64,3a5.05,5.05,0,0,1,0,.54Zm3.4-.83a1.65,1.65,0,0,0-1.61-1.88A1.93,1.93,0,0,0,124,46.52Z"/><path class="cls-1" d="M135.39,44c0,.46,0,1,0,1.76v3.7a3.66,3.66,0,0,1-.91,2.91,3.39,3.39,0,0,1-2.32.77,4.14,4.14,0,0,1-2.12-.53l.29-.88a3.62,3.62,0,0,0,1.87.5c1.19,0,2.06-.62,2.06-2.23v-.71h0a2.29,2.29,0,0,1-2,1.07,2.86,2.86,0,0,1-2.72-3.12c0-2.16,1.41-3.38,2.88-3.38a2.14,2.14,0,0,1,2,1.1h0l.06-1Zm-1.2,2.52a1.76,1.76,0,0,0-.06-.53,1.67,1.67,0,0,0-1.62-1.22c-1.11,0-1.9.93-1.9,2.41,0,1.25.63,2.29,1.88,2.29a1.7,1.7,0,0,0,1.61-1.18,1.94,1.94,0,0,0,.09-.62Z"/><path class="cls-1" d="M142.6,48.59c0,.66,0,1.24.05,1.74h-1l-.06-1h0a2.4,2.4,0,0,1-2.11,1.19c-1,0-2.2-.56-2.2-2.8V44h1.16v3.53c0,1.22.37,2,1.43,2a1.67,1.67,0,0,0,1.52-1,1.59,1.59,0,0,0,.11-.59V44h1.16Z"/><path class="cls-1" d="M144.52,45.94c0-.75,0-1.39-.05-2h1l0,1.25h.06a1.92,1.92,0,0,1,1.76-1.39,1.11,1.11,0,0,1,.33,0v1.09a1.51,1.51,0,0,0-.39,0,1.63,1.63,0,0,0-1.56,1.49,4.15,4.15,0,0,0-.05.54v3.4h-1.15Z"/><path class="cls-1" d="M154.47,47.09a3.12,3.12,0,0,1-3.17,3.39,3,3,0,0,1-3.06-3.29,3.11,3.11,0,0,1,3.16-3.38,3,3,0,0,1,3.07,3.28m-5.06.07c0,1.39.8,2.45,1.94,2.45s1.94-1,1.94-2.48c0-1.08-.54-2.45-1.91-2.45s-2,1.26-2,2.48"/><path class="cls-1" d="M155.78,49.15a3,3,0,0,0,1.52.46c.85,0,1.24-.42,1.24-1s-.33-.86-1.18-1.18c-1.15-.4-1.69-1-1.69-1.8a2,2,0,0,1,2.2-1.87,3.2,3.2,0,0,1,1.57.39l-.29.85a2.45,2.45,0,0,0-1.3-.37c-.69,0-1.07.39-1.07.87s.38.76,1.21,1.08c1.11.42,1.67,1,1.67,1.92,0,1.12-.87,1.91-2.38,1.91a3.64,3.64,0,0,1-1.79-.43Z"/></svg>